{
	"asset":{
		"generator":"Khronos glTF Blender I/O v4.1.62",
		"version":"2.0"
	},
	"extensionsUsed":[
		"KHR_materials_transmission",
		"KHR_materials_ior"
	],
	"scene":0,
	"scenes":[
		{
			"name":"Scene",
			"nodes":[
				0,
				1,
				2,
				3,
				4,
				5,
				6,
				7,
				8,
				9,
				10,
				11,
				12,
				13,
				14,
				15,
				16
			]
		}
	],
	"nodes":[
		{
			"camera":0,
			"name":"Camera",
			"rotation":[
				0.18912525475025177,
				0.7289162874221802,
				0.6370792984962463,
				0.16444692015647888
			],
			"translation":[
				12.92529582977295,
				26.549999237060547,
				2.8707094192504883
			]
		},
		{
			"mesh":0,
			"name":"Mesh000",
			"rotation":[
				0.5,
				0.5,
				0.5,
				0.5
			]
		},
		{
			"mesh":1,
			"name":"Mesh001",
			"rotation":[
				0.5,
				0.5,
				0.5,
				0.5
			]
		},
		{
			"mesh":2,
			"name":"Mesh002",
			"rotation":[
				0.5,
				0.5,
				0.5,
				0.5
			]
		},
		{
			"mesh":3,
			"name":"Mesh003",
			"rotation":[
				0.5,
				0.5,
				0.5,
				0.5
			]
		},
		{
			"mesh":4,
			"name":"Mesh004",
			"rotation":[
				0.5,
				0.5,
				0.5,
				0.5
			]
		},
		{
			"mesh":5,
			"name":"Mesh005",
			"rotation":[
				0.5,
				0.5,
				0.5,
				0.5
			]
		},
		{
			"mesh":6,
			"name":"Mesh006",
			"rotation":[
				0.5,
				0.5,
				0.5,
				0.5
			]
		},
		{
			"mesh":7,
			"name":"Mesh007",
			"rotation":[
				0.5,
				0.5,
				0.5,
				0.5
			]
		},
		{
			"mesh":8,
			"name":"Mesh008",
			"rotation":[
				0.5,
				0.5,
				0.5,
				0.5
			]
		},
		{
			"mesh":9,
			"name":"Mesh009",
			"rotation":[
				0.5,
				0.5,
				0.5,
				0.5
			]
		},
		{
			"mesh":10,
			"name":"Mesh010",
			"rotation":[
				0.5,
				0.5,
				0.5,
				0.5
			]
		},
		{
			"mesh":11,
			"name":"Mesh011",
			"rotation":[
				0.5,
				0.5,
				0.5,
				0.5
			]
		},
		{
			"mesh":12,
			"name":"Mesh012",
			"rotation":[
				0.5,
				0.5,
				0.5,
				0.5
			]
		},
		{
			"mesh":13,
			"name":"Mesh013",
			"rotation":[
				0.5,
				0.5,
				0.5,
				0.5
			]
		},
		{
			"mesh":14,
			"name":"Mesh014",
			"rotation":[
				0.5,
				0.5,
				0.5,
				0.5
			]
		},
		{
			"mesh":15,
			"name":"Mesh015",
			"rotation":[
				0.5,
				0.5,
				0.5,
				0.5
			]
		}
	],
	"cameras":[
		{
			"name":"Camera",
			"perspective":{
				"aspectRatio":1.3333333333333333,
				"yfov":0.8457078839508004,
				"zfar":100,
				"znear":0.10000000149011612
			},
			"type":"perspective"
		}
	],
	"materials":[
		{
			"doubleSided":true,
			"extensions":{
				"KHR_materials_transmission":{
					"transmissionFactor":1
				},
				"KHR_materials_ior":{
					"ior":1.4500000476837158
				}
			},
			"extras":{
				"type":1,
				"medium_type":1,
				"medium_color":[
					0.9046453833580017,
					0.6307660341262817,
					0.30055078864097595
				],
				"medium_density":1.0
			},
			"name":"Dragon",
			"pbrMetallicRoughness":{
				"metallicFactor":0,
				"roughnessFactor":0.3162277638912201
			}
		},
		{
			"doubleSided":true,
			"extensions":{
				"KHR_materials_transmission":{
					"transmissionFactor":1
				},
				"KHR_materials_ior":{
					"ior":1.4500000476837158
				}
			},
			"extras":{
				"type":1,
				"medium_type":1,
				"medium_color":[
					0.9046453833580017,
					0.6307660341262817,
					0.30055078864097595
				],
				"medium_density":0.6000000238418579
			},
			"name":"Bottom",
			"pbrMetallicRoughness":{
				"metallicFactor":0,
				"roughnessFactor":0.10000000149011612
			}
		}
	],
	"meshes":[
		{
			"name":"Mesh000",
			"primitives":[
				{
					"attributes":{
						"POSITION":0,
						"NORMAL":1,
						"TEXCOORD_0":2,
						"TANGENT":3
					},
					"indices":4,
					"material":0
				}
			]
		},
		{
			"name":"Mesh001",
			"primitives":[
				{
					"attributes":{
						"POSITION":5,
						"NORMAL":6,
						"TEXCOORD_0":7,
						"TANGENT":8
					},
					"indices":9,
					"material":0
				}
			]
		},
		{
			"name":"Mesh002",
			"primitives":[
				{
					"attributes":{
						"POSITION":10,
						"NORMAL":11,
						"TEXCOORD_0":12,
						"TANGENT":13
					},
					"indices":14,
					"material":0
				}
			]
		},
		{
			"name":"Mesh003",
			"primitives":[
				{
					"attributes":{
						"POSITION":15,
						"NORMAL":16,
						"TEXCOORD_0":17,
						"TANGENT":18
					},
					"indices":19,
					"material":0
				}
			]
		},
		{
			"name":"Mesh004",
			"primitives":[
				{
					"attributes":{
						"POSITION":20,
						"NORMAL":21,
						"TEXCOORD_0":22,
						"TANGENT":23
					},
					"indices":24,
					"material":0
				}
			]
		},
		{
			"name":"Mesh005",
			"primitives":[
				{
					"attributes":{
						"POSITION":25,
						"NORMAL":26,
						"TEXCOORD_0":27,
						"TANGENT":28
					},
					"indices":29,
					"material":0
				}
			]
		},
		{
			"name":"Mesh006",
			"primitives":[
				{
					"attributes":{
						"POSITION":30,
						"NORMAL":31,
						"TEXCOORD_0":32,
						"TANGENT":33
					},
					"indices":34,
					"material":1
				}
			]
		},
		{
			"name":"Mesh007",
			"primitives":[
				{
					"attributes":{
						"POSITION":35,
						"NORMAL":36,
						"TEXCOORD_0":37,
						"TANGENT":38
					},
					"indices":39,
					"material":0
				}
			]
		},
		{
			"name":"Mesh008",
			"primitives":[
				{
					"attributes":{
						"POSITION":40,
						"NORMAL":41,
						"TEXCOORD_0":42,
						"TANGENT":43
					},
					"indices":44,
					"material":0
				}
			]
		},
		{
			"name":"Mesh009",
			"primitives":[
				{
					"attributes":{
						"POSITION":45,
						"NORMAL":46,
						"TEXCOORD_0":47,
						"TANGENT":48
					},
					"indices":49,
					"material":0
				}
			]
		},
		{
			"name":"Mesh010",
			"primitives":[
				{
					"attributes":{
						"POSITION":50,
						"NORMAL":51,
						"TEXCOORD_0":52,
						"TANGENT":53
					},
					"indices":54,
					"material":0
				}
			]
		},
		{
			"name":"Mesh011",
			"primitives":[
				{
					"attributes":{
						"POSITION":55,
						"NORMAL":56,
						"TEXCOORD_0":57,
						"TANGENT":58
					},
					"indices":59,
					"material":0
				}
			]
		},
		{
			"name":"Mesh012",
			"primitives":[
				{
					"attributes":{
						"POSITION":60,
						"NORMAL":61,
						"TEXCOORD_0":62,
						"TANGENT":63
					},
					"indices":64,
					"material":0
				}
			]
		},
		{
			"name":"Mesh013",
			"primitives":[
				{
					"attributes":{
						"POSITION":65,
						"NORMAL":66,
						"TEXCOORD_0":67,
						"TANGENT":68
					},
					"indices":69,
					"material":0
				}
			]
		},
		{
			"name":"Mesh014",
			"primitives":[
				{
					"attributes":{
						"POSITION":70,
						"NORMAL":71,
						"TEXCOORD_0":72,
						"TANGENT":73
					},
					"indices":74,
					"material":0
				}
			]
		},
		{
			"name":"Mesh015",
			"primitives":[
				{
					"attributes":{
						"POSITION":75,
						"NORMAL":76,
						"TEXCOORD_0":77,
						"TANGENT":78
					},
					"indices":79,
					"material":0
				}
			]
		}
	],
	"accessors":[
		{
			"bufferView":0,
			"componentType":5126,
			"count":944,
			"max":[
				-1.7764760255813599,
				3.7995970249176025,
				6.039207935333252
			],
			"min":[
				-2.1214020252227783,
				3.6405279636383057,
				5.674796104431152
			],
			"type":"VEC3"
		},
		{
			"bufferView":1,
			"componentType":5126,
			"count":944,
			"type":"VEC3"
		},
		{
			"bufferView":2,
			"componentType":5126,
			"count":944,
			"type":"VEC2"
		},
		{
			"bufferView":3,
			"componentType":5126,
			"count":944,
			"type":"VEC4"
		},
		{
			"bufferView":4,
			"componentType":5123,
			"count":3360,
			"type":"SCALAR"
		},
		{
			"bufferView":5,
			"componentType":5126,
			"count":392,
			"max":[
				-1.8952820301055908,
				3.8529889583587646,
				5.946381092071533
			],
			"min":[
				-2.03576397895813,
				3.72338604927063,
				5.803286075592041
			],
			"type":"VEC3"
		},
		{
			"bufferView":6,
			"componentType":5126,
			"count":392,
			"type":"VEC3"
		},
		{
			"bufferView":7,
			"componentType":5126,
			"count":392,
			"type":"VEC2"
		},
		{
			"bufferView":8,
			"componentType":5126,
			"count":392,
			"type":"VEC4"
		},
		{
			"bufferView":9,
			"componentType":5123,
			"count":1824,
			"type":"SCALAR"
		},
		{
			"bufferView":10,
			"componentType":5126,
			"count":486,
			"max":[
				-1.9427180290222168,
				4.789621829986572,
				6.1165947914123535
			],
			"min":[
				-2.1946310997009277,
				3.828665018081665,
				5.852574825286865
			],
			"type":"VEC3"
		},
		{
			"bufferView":11,
			"componentType":5126,
			"count":486,
			"type":"VEC3"
		},
		{
			"bufferView":12,
			"componentType":5126,
			"count":486,
			"type":"VEC2"
		},
		{
			"bufferView":13,
			"componentType":5126,
			"count":486,
			"type":"VEC4"
		},
		{
			"bufferView":14,
			"componentType":5123,
			"count":1122,
			"type":"SCALAR"
		},
		{
			"bufferView":15,
			"componentType":5126,
			"count":2104,
			"max":[
				-1.8491090536117554,
				3.981657028198242,
				6.007938861846924
			],
			"min":[
				-2.0902318954467773,
				3.6587090492248535,
				5.753884792327881
			],
			"type":"VEC3"
		},
		{
			"bufferView":16,
			"componentType":5126,
			"count":2104,
			"type":"VEC3"
		},
		{
			"bufferView":17,
			"componentType":5126,
			"count":2104,
			"type":"VEC2"
		},
		{
			"bufferView":18,
			"componentType":5126,
			"count":2104,
			"type":"VEC4"
		},
		{
			"bufferView":19,
			"componentType":5123,
			"count":10368,
			"type":"SCALAR"
		},
		{
			"bufferView":20,
			"componentType":5126,
			"count":719,
			"max":[
				-1.4921449422836304,
				3.673293113708496,
				5.906206130981445
			],
			"min":[
				-1.9948439598083496,
				1.3872649669647217,
				5.367282867431641
			],
			"type":"VEC3"
		},
		{
			"bufferView":21,
			"componentType":5126,
			"count":719,
			"type":"VEC3"
		},
		{
			"bufferView":22,
			"componentType":5126,
			"count":719,
			"type":"VEC2"
		},
		{
			"bufferView":23,
			"componentType":5126,
			"count":719,
			"type":"VEC4"
		},
		{
			"bufferView":24,
			"componentType":5123,
			"count":2052,
			"type":"SCALAR"
		},
		{
			"bufferView":25,
			"componentType":5126,
			"count":2909,
			"max":[
				0.6234380006790161,
				0.7677090167999268,
				4.088710784912109
			],
			"min":[
				-0.528768002986908,
				0.18005399405956268,
				3.071104049682617
			],
			"type":"VEC3"
		},
		{
			"bufferView":26,
			"componentType":5126,
			"count":2909,
			"type":"VEC3"
		},
		{
			"bufferView":27,
			"componentType":5126,
			"count":2909,
			"type":"VEC2"
		},
		{
			"bufferView":28,
			"componentType":5126,
			"count":2909,
			"type":"VEC4"
		},
		{
			"bufferView":29,
			"componentType":5123,
			"count":14112,
			"type":"SCALAR"
		},
		{
			"bufferView":30,
			"componentType":5126,
			"count":6802,
			"max":[
				10.660306930541992,
				0.21517400443553925,
				9.070286750793457
			],
			"min":[
				-10.394182205200195,
				-1.6384090185165405,
				-11.984201431274414
			],
			"type":"VEC3"
		},
		{
			"bufferView":31,
			"componentType":5126,
			"count":6802,
			"type":"VEC3"
		},
		{
			"bufferView":32,
			"componentType":5126,
			"count":6802,
			"type":"VEC2"
		},
		{
			"bufferView":33,
			"componentType":5126,
			"count":6802,
			"type":"VEC4"
		},
		{
			"bufferView":34,
			"componentType":5123,
			"count":32640,
			"type":"SCALAR"
		},
		{
			"bufferView":35,
			"componentType":5126,
			"count":174647,
			"max":[
				0.0880969986319542,
				2.076646089553833,
				6.370655059814453
			],
			"min":[
				-3.20292592048645,
				-0.08368399739265442,
				2.8701839447021484
			],
			"type":"VEC3"
		},
		{
			"bufferView":36,
			"componentType":5126,
			"count":174647,
			"type":"VEC3"
		},
		{
			"bufferView":37,
			"componentType":5126,
			"count":174647,
			"type":"VEC2"
		},
		{
			"bufferView":38,
			"componentType":5126,
			"count":174647,
			"type":"VEC4"
		},
		{
			"bufferView":39,
			"componentType":5125,
			"count":936144,
			"type":"SCALAR"
		},
		{
			"bufferView":40,
			"componentType":5126,
			"count":97535,
			"max":[
				10.010995864868164,
				17.66783905029297,
				5.542551040649414
			],
			"min":[
				-10.071920394897461,
				0.016256000846624374,
				-14.885196685791016
			],
			"type":"VEC3"
		},
		{
			"bufferView":41,
			"componentType":5126,
			"count":97535,
			"type":"VEC3"
		},
		{
			"bufferView":42,
			"componentType":5126,
			"count":97535,
			"type":"VEC2"
		},
		{
			"bufferView":43,
			"componentType":5126,
			"count":97535,
			"type":"VEC4"
		},
		{
			"bufferView":44,
			"componentType":5125,
			"count":453552,
			"type":"SCALAR"
		},
		{
			"bufferView":45,
			"componentType":5126,
			"count":4110,
			"max":[
				-1.6757800579071045,
				3.954586982727051,
				6.152616024017334
			],
			"min":[
				-2.226346969604492,
				2.743928909301758,
				5.565878868103027
			],
			"type":"VEC3"
		},
		{
			"bufferView":46,
			"componentType":5126,
			"count":4110,
			"type":"VEC3"
		},
		{
			"bufferView":47,
			"componentType":5126,
			"count":4110,
			"type":"VEC2"
		},
		{
			"bufferView":48,
			"componentType":5126,
			"count":4110,
			"type":"VEC4"
		},
		{
			"bufferView":49,
			"componentType":5123,
			"count":20214,
			"type":"SCALAR"
		},
		{
			"bufferView":50,
			"componentType":5126,
			"count":14229,
			"max":[
				-1.8669719696044922,
				4.540493965148926,
				6.722539901733398
			],
			"min":[
				-5.031322002410889,
				3.06756591796875,
				5.697988986968994
			],
			"type":"VEC3"
		},
		{
			"bufferView":51,
			"componentType":5126,
			"count":14229,
			"type":"VEC3"
		},
		{
			"bufferView":52,
			"componentType":5126,
			"count":14229,
			"type":"VEC2"
		},
		{
			"bufferView":53,
			"componentType":5126,
			"count":14229,
			"type":"VEC4"
		},
		{
			"bufferView":54,
			"componentType":5123,
			"count":60384,
			"type":"SCALAR"
		},
		{
			"bufferView":55,
			"componentType":5126,
			"count":390,
			"max":[
				0.43824899196624756,
				10.375777244567871,
				5.3350830078125
			],
			"min":[
				-0.49917298555374146,
				9.946773529052734,
				4.7689528465271
			],
			"type":"VEC3"
		},
		{
			"bufferView":56,
			"componentType":5126,
			"count":390,
			"type":"VEC3"
		},
		{
			"bufferView":57,
			"componentType":5126,
			"count":390,
			"type":"VEC2"
		},
		{
			"bufferView":58,
			"componentType":5126,
			"count":390,
			"type":"VEC4"
		},
		{
			"bufferView":59,
			"componentType":5123,
			"count":1296,
			"type":"SCALAR"
		},
		{
			"bufferView":60,
			"componentType":5126,
			"count":77877,
			"max":[
				8.69744873046875,
				0.9149600267410278,
				7.097222805023193
			],
			"min":[
				-8.420774459838867,
				-0.006707000080496073,
				-10.020423889160156
			],
			"type":"VEC3"
		},
		{
			"bufferView":61,
			"componentType":5126,
			"count":77877,
			"type":"VEC3"
		},
		{
			"bufferView":62,
			"componentType":5126,
			"count":77877,
			"type":"VEC2"
		},
		{
			"bufferView":63,
			"componentType":5126,
			"count":77877,
			"type":"VEC4"
		},
		{
			"bufferView":64,
			"componentType":5125,
			"count":460320,
			"type":"SCALAR"
		},
		{
			"bufferView":65,
			"componentType":5126,
			"count":109372,
			"max":[
				7.557477951049805,
				12.433786392211914,
				5.607676982879639
			],
			"min":[
				-1.9595500230789185,
				3.3412930965423584,
				-13.438231468200684
			],
			"type":"VEC3"
		},
		{
			"bufferView":66,
			"componentType":5126,
			"count":109372,
			"type":"VEC3"
		},
		{
			"bufferView":67,
			"componentType":5126,
			"count":109372,
			"type":"VEC2"
		},
		{
			"bufferView":68,
			"componentType":5126,
			"count":109372,
			"type":"VEC4"
		},
		{
			"bufferView":69,
			"componentType":5125,
			"count":492000,
			"type":"SCALAR"
		},
		{
			"bufferView":70,
			"componentType":5126,
			"count":256,
			"max":[
				0.9114099740982056,
				8.816875457763672,
				1.1869239807128906
			],
			"min":[
				-0.9723330140113831,
				7.861828804016113,
				0.46550801396369934
			],
			"type":"VEC3"
		},
		{
			"bufferView":71,
			"componentType":5126,
			"count":256,
			"type":"VEC3"
		},
		{
			"bufferView":72,
			"componentType":5126,
			"count":256,
			"type":"VEC2"
		},
		{
			"bufferView":73,
			"componentType":5126,
			"count":256,
			"type":"VEC4"
		},
		{
			"bufferView":74,
			"componentType":5123,
			"count":1008,
			"type":"SCALAR"
		},
		{
			"bufferView":75,
			"componentType":5126,
			"count":1048,
			"max":[
				0.65904700756073,
				11.758651733398438,
				3.7750558853149414
			],
			"min":[
				-0.7199699878692627,
				11.465021133422852,
				3.465146064758301
			],
			"type":"VEC3"
		},
		{
			"bufferView":76,
			"componentType":5126,
			"count":1048,
			"type":"VEC3"
		},
		{
			"bufferView":77,
			"componentType":5126,
			"count":1048,
			"type":"VEC2"
		},
		{
			"bufferView":78,
			"componentType":5126,
			"count":1048,
			"type":"VEC4"
		},
		{
			"bufferView":79,
			"componentType":5123,
			"count":5040,
			"type":"SCALAR"
		}
	],
	"bufferViews":[
		{
			"buffer":0,
			"byteLength":11328,
			"byteOffset":0,
			"target":34962
		},
		{
			"buffer":0,
			"byteLength":11328,
			"byteOffset":11328,
			"target":34962
		},
		{
			"buffer":0,
			"byteLength":7552,
			"byteOffset":22656,
			"target":34962
		},
		{
			"buffer":0,
			"byteLength":15104,
			"byteOffset":30208,
			"target":34962
		},
		{
			"buffer":0,
			"byteLength":6720,
			"byteOffset":45312,
			"target":34963
		},
		{
			"buffer":0,
			"byteLength":4704,
			"byteOffset":52032,
			"target":34962
		},
		{
			"buffer":0,
			"byteLength":4704,
			"byteOffset":56736,
			"target":34962
		},
		{
			"buffer":0,
			"byteLength":3136,
			"byteOffset":61440,
			"target":34962
		},
		{
			"buffer":0,
			"byteLength":6272,
			"byteOffset":64576,
			"target":34962
		},
		{
			"buffer":0,
			"byteLength":3648,
			"byteOffset":70848,
			"target":34963
		},
		{
			"buffer":0,
			"byteLength":5832,
			"byteOffset":74496,
			"target":34962
		},
		{
			"buffer":0,
			"byteLength":5832,
			"byteOffset":80328,
			"target":34962
		},
		{
			"buffer":0,
			"byteLength":3888,
			"byteOffset":86160,
			"target":34962
		},
		{
			"buffer":0,
			"byteLength":7776,
			"byteOffset":90048,
			"target":34962
		},
		{
			"buffer":0,
			"byteLength":2244,
			"byteOffset":97824,
			"target":34963
		},
		{
			"buffer":0,
			"byteLength":25248,
			"byteOffset":100068,
			"target":34962
		},
		{
			"buffer":0,
			"byteLength":25248,
			"byteOffset":125316,
			"target":34962
		},
		{
			"buffer":0,
			"byteLength":16832,
			"byteOffset":150564,
			"target":34962
		},
		{
			"buffer":0,
			"byteLength":33664,
			"byteOffset":167396,
			"target":34962
		},
		{
			"buffer":0,
			"byteLength":20736,
			"byteOffset":201060,
			"target":34963
		},
		{
			"buffer":0,
			"byteLength":8628,
			"byteOffset":221796,
			"target":34962
		},
		{
			"buffer":0,
			"byteLength":8628,
			"byteOffset":230424,
			"target":34962
		},
		{
			"buffer":0,
			"byteLength":5752,
			"byteOffset":239052,
			"target":34962
		},
		{
			"buffer":0,
			"byteLength":11504,
			"byteOffset":244804,
			"target":34962
		},
		{
			"buffer":0,
			"byteLength":4104,
			"byteOffset":256308,
			"target":34963
		},
		{
			"buffer":0,
			"byteLength":34908,
			"byteOffset":260412,
			"target":34962
		},
		{
			"buffer":0,
			"byteLength":34908,
			"byteOffset":295320,
			"target":34962
		},
		{
			"buffer":0,
			"byteLength":23272,
			"byteOffset":330228,
			"target":34962
		},
		{
			"buffer":0,
			"byteLength":46544,
			"byteOffset":353500,
			"target":34962
		},
		{
			"buffer":0,
			"byteLength":28224,
			"byteOffset":400044,
			"target":34963
		},
		{
			"buffer":0,
			"byteLength":81624,
			"byteOffset":428268,
			"target":34962
		},
		{
			"buffer":0,
			"byteLength":81624,
			"byteOffset":509892,
			"target":34962
		},
		{
			"buffer":0,
			"byteLength":54416,
			"byteOffset":591516,
			"target":34962
		},
		{
			"buffer":0,
			"byteLength":108832,
			"byteOffset":645932,
			"target":34962
		},
		{
			"buffer":0,
			"byteLength":65280,
			"byteOffset":754764,
			"target":34963
		},
		{
			"buffer":0,
			"byteLength":2095764,
			"byteOffset":820044,
			"target":34962
		},
		{
			"buffer":0,
			"byteLength":2095764,
			"byteOffset":2915808,
			"target":34962
		},
		{
			"buffer":0,
			"byteLength":1397176,
			"byteOffset":5011572,
			"target":34962
		},
		{
			"buffer":0,
			"byteLength":2794352,
			"byteOffset":6408748,
			"target":34962
		},
		{
			"buffer":0,
			"byteLength":3744576,
			"byteOffset":9203100,
			"target":34963
		},
		{
			"buffer":0,
			"byteLength":1170420,
			"byteOffset":12947676,
			"target":34962
		},
		{
			"buffer":0,
			"byteLength":1170420,
			"byteOffset":14118096,
			"target":34962
		},
		{
			"buffer":0,
			"byteLength":780280,
			"byteOffset":15288516,
			"target":34962
		},
		{
			"buffer":0,
			"byteLength":1560560,
			"byteOffset":16068796,
			"target":34962
		},
		{
			"buffer":0,
			"byteLength":1814208,
			"byteOffset":17629356,
			"target":34963
		},
		{
			"buffer":0,
			"byteLength":49320,
			"byteOffset":19443564,
			"target":34962
		},
		{
			"buffer":0,
			"byteLength":49320,
			"byteOffset":19492884,
			"target":34962
		},
		{
			"buffer":0,
			"byteLength":32880,
			"byteOffset":19542204,
			"target":34962
		},
		{
			"buffer":0,
			"byteLength":65760,
			"byteOffset":19575084,
			"target":34962
		},
		{
			"buffer":0,
			"byteLength":40428,
			"byteOffset":19640844,
			"target":34963
		},
		{
			"buffer":0,
			"byteLength":170748,
			"byteOffset":19681272,
			"target":34962
		},
		{
			"buffer":0,
			"byteLength":170748,
			"byteOffset":19852020,
			"target":34962
		},
		{
			"buffer":0,
			"byteLength":113832,
			"byteOffset":20022768,
			"target":34962
		},
		{
			"buffer":0,
			"byteLength":227664,
			"byteOffset":20136600,
			"target":34962
		},
		{
			"buffer":0,
			"byteLength":120768,
			"byteOffset":20364264,
			"target":34963
		},
		{
			"buffer":0,
			"byteLength":4680,
			"byteOffset":20485032,
			"target":34962
		},
		{
			"buffer":0,
			"byteLength":4680,
			"byteOffset":20489712,
			"target":34962
		},
		{
			"buffer":0,
			"byteLength":3120,
			"byteOffset":20494392,
			"target":34962
		},
		{
			"buffer":0,
			"byteLength":6240,
			"byteOffset":20497512,
			"target":34962
		},
		{
			"buffer":0,
			"byteLength":2592,
			"byteOffset":20503752,
			"target":34963
		},
		{
			"buffer":0,
			"byteLength":934524,
			"byteOffset":20506344,
			"target":34962
		},
		{
			"buffer":0,
			"byteLength":934524,
			"byteOffset":21440868,
			"target":34962
		},
		{
			"buffer":0,
			"byteLength":623016,
			"byteOffset":22375392,
			"target":34962
		},
		{
			"buffer":0,
			"byteLength":1246032,
			"byteOffset":22998408,
			"target":34962
		},
		{
			"buffer":0,
			"byteLength":1841280,
			"byteOffset":24244440,
			"target":34963
		},
		{
			"buffer":0,
			"byteLength":1312464,
			"byteOffset":26085720,
			"target":34962
		},
		{
			"buffer":0,
			"byteLength":1312464,
			"byteOffset":27398184,
			"target":34962
		},
		{
			"buffer":0,
			"byteLength":874976,
			"byteOffset":28710648,
			"target":34962
		},
		{
			"buffer":0,
			"byteLength":1749952,
			"byteOffset":29585624,
			"target":34962
		},
		{
			"buffer":0,
			"byteLength":1968000,
			"byteOffset":31335576,
			"target":34963
		},
		{
			"buffer":0,
			"byteLength":3072,
			"byteOffset":33303576,
			"target":34962
		},
		{
			"buffer":0,
			"byteLength":3072,
			"byteOffset":33306648,
			"target":34962
		},
		{
			"buffer":0,
			"byteLength":2048,
			"byteOffset":33309720,
			"target":34962
		},
		{
			"buffer":0,
			"byteLength":4096,
			"byteOffset":33311768,
			"target":34962
		},
		{
			"buffer":0,
			"byteLength":2016,
			"byteOffset":33315864,
			"target":34963
		},
		{
			"buffer":0,
			"byteLength":12576,
			"byteOffset":33317880,
			"target":34962
		},
		{
			"buffer":0,
			"byteLength":12576,
			"byteOffset":33330456,
			"target":34962
		},
		{
			"buffer":0,
			"byteLength":8384,
			"byteOffset":33343032,
			"target":34962
		},
		{
			"buffer":0,
			"byteLength":16768,
			"byteOffset":33351416,
			"target":34962
		},
		{
			"buffer":0,
			"byteLength":10080,
			"byteOffset":33368184,
			"target":34963
		}
	],
	"buffers":[
		{
			"byteLength":33378264,
			"uri":"dragon.bin"
		}
	]
}
