{
	"asset":{
		"generator":"Khronos glTF Blender I/O v4.1.62",
		"version":"2.0"
	},
	"extensionsUsed":[
		"KHR_materials_transmission",
		"KHR_materials_ior"
	],
	"scene":0,
	"scenes":[
		{
			"name":"Scene",
			"nodes":[
				0,
				1,
				2,
				3,
				4,
				5
			]
		}
	],
	"nodes":[
		{
			"camera":0,
			"name":"Camera",
			"rotation":[
				0.5140467882156372,
				0.30699267983436584,
				0.41066959500312805,
				0.6876495480537415
			],
			"translation":[
				11.7094144821167,
				-7.084053039550781,
				6.860169410705566
			]
		},
		{
			"mesh":0,
			"name":"Mesh000"
		},
		{
			"mesh":1,
			"name":"Mesh001"
		},
		{
			"mesh":2,
			"name":"Mesh002"
		},
		{
			"mesh":3,
			"name":"Mesh003"
		},
		{
			"mesh":4,
			"name":"Plane",
			"scale":[
				10,
				10,
				1
			],
			"translation":[
				-5,
				4,
				0
			]
		}
	],
	"cameras":[
		{
			"name":"Camera",
			"perspective":{
				"aspectRatio":1.3333333333333333,
				"yfov":0.5274237051253257,
				"zfar":100,
				"znear":0.10000000149011612
			},
			"type":"perspective"
		}
	],
	"materials":[
		{
			"doubleSided":true,
			"extensions":{
				"KHR_materials_transmission":{
					"transmissionFactor":1
				},
				"KHR_materials_ior":{
					"ior":1.1299999952316284
				}
			},
			"extras":{
				"type":1,
				"medium_type":1,
				"medium_color":[
					0.8549847602844238,
					0.679556667804718,
					0.2622513771057129
				],
				"medium_density":30.0,
				"opacity":0.5
			},
			"name":"Tea",
			"pbrMetallicRoughness":{
				"baseColorFactor":[
					0.800000011920929,
					0.800000011920929,
					0.800000011920929,
					0.5
				],
				"metallicFactor":0,
				"roughnessFactor":0
			}
		},
		{
			"doubleSided":true,
			"extensions":{
				"KHR_materials_transmission":{
					"transmissionFactor":1
				}
			},
			"extras":{
				"type":1
			},
			"name":"Teapot",
			"pbrMetallicRoughness":{
				"metallicFactor":0,
				"roughnessFactor":0
			}
		},
		{
			"doubleSided":true,
			"extensions":{
				"KHR_materials_transmission":{
					"transmissionFactor":1
				},
				"KHR_materials_ior":{
					"ior":1.3300000429153442
				}
			},
			"extras":{
				"type":1,
				"medium_type":1,
				"medium_color":[
					0.8549847602844238,
					0.679556667804718,
					0.2622513771057129
				],
				"medium_density":30.0,
				"opacity":0.5
			},
			"name":"Tea2",
			"pbrMetallicRoughness":{
				"baseColorFactor":[
					0.800000011920929,
					0.800000011920929,
					0.800000011920929,
					0.5
				],
				"metallicFactor":0,
				"roughnessFactor":0
			}
		},
		{
			"doubleSided":true,
			"name":"Floor",
			"pbrMetallicRoughness":{
				"baseColorTexture":{
					"index":0
				},
				"metallicFactor":0
			}
		}
	],
	"meshes":[
		{
			"name":"Mesh000",
			"primitives":[
				{
					"attributes":{
						"POSITION":0,
						"NORMAL":1,
						"TEXCOORD_0":2,
						"TANGENT":3
					},
					"indices":4,
					"material":0
				}
			]
		},
		{
			"name":"Mesh001",
			"primitives":[
				{
					"attributes":{
						"POSITION":5,
						"NORMAL":6,
						"TEXCOORD_0":7,
						"TANGENT":8
					},
					"indices":9,
					"material":1
				}
			]
		},
		{
			"name":"Mesh002",
			"primitives":[
				{
					"attributes":{
						"POSITION":10,
						"NORMAL":11,
						"TEXCOORD_0":12,
						"TANGENT":13
					},
					"indices":14,
					"material":2
				}
			]
		},
		{
			"name":"Mesh003",
			"primitives":[
				{
					"attributes":{
						"POSITION":15,
						"NORMAL":16,
						"TEXCOORD_0":17,
						"TANGENT":18
					},
					"indices":19,
					"material":1
				}
			]
		},
		{
			"name":"Plane",
			"primitives":[
				{
					"attributes":{
						"POSITION":20,
						"NORMAL":21,
						"TEXCOORD_0":22,
						"TANGENT":23
					},
					"indices":24,
					"material":3
				}
			]
		}
	],
	"textures":[
		{
			"sampler":0,
			"source":0
		}
	],
	"images":[
		{
			"mimeType":"image/png",
			"name":"checker",
			"uri":"textures/checker.png"
		}
	],
	"accessors":[
		{
			"bufferView":0,
			"componentType":5126,
			"count":4999,
			"max":[
				2.8483099937438965,
				2.8483102321624756,
				2.5558042526245117
			],
			"min":[
				-2.8483099937438965,
				-3.3965036869049072,
				0.2450319230556488
			],
			"type":"VEC3"
		},
		{
			"bufferView":1,
			"componentType":5126,
			"count":4999,
			"type":"VEC3"
		},
		{
			"bufferView":2,
			"componentType":5126,
			"count":4999,
			"type":"VEC2"
		},
		{
			"bufferView":3,
			"componentType":5126,
			"count":4999,
			"type":"VEC4"
		},
		{
			"bufferView":4,
			"componentType":5123,
			"count":27990,
			"type":"SCALAR"
		},
		{
			"bufferView":5,
			"componentType":5126,
			"count":35835,
			"max":[
				3.0831298828125,
				4.826631546020508,
				4.740152835845947
			],
			"min":[
				-3.0831298828125,
				-4.577330589294434,
				0.03195798397064209
			],
			"type":"VEC3"
		},
		{
			"bufferView":6,
			"componentType":5126,
			"count":35835,
			"type":"VEC3"
		},
		{
			"bufferView":7,
			"componentType":5126,
			"count":35835,
			"type":"VEC2"
		},
		{
			"bufferView":8,
			"componentType":5126,
			"count":35835,
			"type":"VEC4"
		},
		{
			"bufferView":9,
			"componentType":5123,
			"count":207930,
			"type":"SCALAR"
		},
		{
			"bufferView":10,
			"componentType":5126,
			"count":280,
			"max":[
				2.739809036254883,
				2.739809274673462,
				2.5558042526245117
			],
			"min":[
				-2.739809036254883,
				-3.3965036869049072,
				2.5558037757873535
			],
			"type":"VEC3"
		},
		{
			"bufferView":11,
			"componentType":5126,
			"count":280,
			"type":"VEC3"
		},
		{
			"bufferView":12,
			"componentType":5126,
			"count":280,
			"type":"VEC2"
		},
		{
			"bufferView":13,
			"componentType":5126,
			"count":280,
			"type":"VEC4"
		},
		{
			"bufferView":14,
			"componentType":5123,
			"count":690,
			"type":"SCALAR"
		},
		{
			"bufferView":15,
			"componentType":5126,
			"count":24902,
			"max":[
				1.9239710569381714,
				1.92397141456604,
				6.165119171142578
			],
			"min":[
				-1.9239720106124878,
				-1.9239706993103027,
				4.583067893981934
			],
			"type":"VEC3"
		},
		{
			"bufferView":16,
			"componentType":5126,
			"count":24902,
			"type":"VEC3"
		},
		{
			"bufferView":17,
			"componentType":5126,
			"count":24902,
			"type":"VEC2"
		},
		{
			"bufferView":18,
			"componentType":5126,
			"count":24902,
			"type":"VEC4"
		},
		{
			"bufferView":19,
			"componentType":5123,
			"count":143616,
			"type":"SCALAR"
		},
		{
			"bufferView":20,
			"componentType":5126,
			"count":4,
			"max":[
				1,
				1,
				0
			],
			"min":[
				-1,
				-1,
				0
			],
			"type":"VEC3"
		},
		{
			"bufferView":21,
			"componentType":5126,
			"count":4,
			"type":"VEC3"
		},
		{
			"bufferView":22,
			"componentType":5126,
			"count":4,
			"type":"VEC2"
		},
		{
			"bufferView":23,
			"componentType":5126,
			"count":4,
			"type":"VEC4"
		},
		{
			"bufferView":24,
			"componentType":5123,
			"count":6,
			"type":"SCALAR"
		}
	],
	"bufferViews":[
		{
			"buffer":0,
			"byteLength":59988,
			"byteOffset":0,
			"target":34962
		},
		{
			"buffer":0,
			"byteLength":59988,
			"byteOffset":59988,
			"target":34962
		},
		{
			"buffer":0,
			"byteLength":39992,
			"byteOffset":119976,
			"target":34962
		},
		{
			"buffer":0,
			"byteLength":79984,
			"byteOffset":159968,
			"target":34962
		},
		{
			"buffer":0,
			"byteLength":55980,
			"byteOffset":239952,
			"target":34963
		},
		{
			"buffer":0,
			"byteLength":430020,
			"byteOffset":295932,
			"target":34962
		},
		{
			"buffer":0,
			"byteLength":430020,
			"byteOffset":725952,
			"target":34962
		},
		{
			"buffer":0,
			"byteLength":286680,
			"byteOffset":1155972,
			"target":34962
		},
		{
			"buffer":0,
			"byteLength":573360,
			"byteOffset":1442652,
			"target":34962
		},
		{
			"buffer":0,
			"byteLength":415860,
			"byteOffset":2016012,
			"target":34963
		},
		{
			"buffer":0,
			"byteLength":3360,
			"byteOffset":2431872,
			"target":34962
		},
		{
			"buffer":0,
			"byteLength":3360,
			"byteOffset":2435232,
			"target":34962
		},
		{
			"buffer":0,
			"byteLength":2240,
			"byteOffset":2438592,
			"target":34962
		},
		{
			"buffer":0,
			"byteLength":4480,
			"byteOffset":2440832,
			"target":34962
		},
		{
			"buffer":0,
			"byteLength":1380,
			"byteOffset":2445312,
			"target":34963
		},
		{
			"buffer":0,
			"byteLength":298824,
			"byteOffset":2446692,
			"target":34962
		},
		{
			"buffer":0,
			"byteLength":298824,
			"byteOffset":2745516,
			"target":34962
		},
		{
			"buffer":0,
			"byteLength":199216,
			"byteOffset":3044340,
			"target":34962
		},
		{
			"buffer":0,
			"byteLength":398432,
			"byteOffset":3243556,
			"target":34962
		},
		{
			"buffer":0,
			"byteLength":287232,
			"byteOffset":3641988,
			"target":34963
		},
		{
			"buffer":0,
			"byteLength":48,
			"byteOffset":3929220,
			"target":34962
		},
		{
			"buffer":0,
			"byteLength":48,
			"byteOffset":3929268,
			"target":34962
		},
		{
			"buffer":0,
			"byteLength":32,
			"byteOffset":3929316,
			"target":34962
		},
		{
			"buffer":0,
			"byteLength":64,
			"byteOffset":3929348,
			"target":34962
		},
		{
			"buffer":0,
			"byteLength":12,
			"byteOffset":3929412,
			"target":34963
		}
	],
	"samplers":[
		{
			"magFilter":9729,
			"minFilter":9987
		}
	],
	"buffers":[
		{
			"byteLength":3929424,
			"uri":"teapot-full.bin"
		}
	]
}
